<svg xmlns="http://www.w3.org/2000/svg" viewBox="0 0 960 320" role="img" aria-label="CI/CD diagram">
  <defs>
    <linearGradient id="bg" x1="0" x2="1" y1="0" y2="1">
      <stop offset="0" stop-color="#031226"/>
      <stop offset="1" stop-color="#13233f"/>
    </linearGradient>
    <linearGradient id="box" x1="0" x2="1" y1="0" y2="0">
      <stop offset="0" stop-color="#0b2a4e"/>
      <stop offset="1" stop-color="#123963"/>
    </linearGradient>
    <marker id="arrow" markerWidth="10" markerHeight="7" refX="9" refY="3.5" orient="auto">
      <polygon points="0 0, 10 3.5, 0 7" fill="#7dd3fc"/>
    </marker>
  </defs>
  <rect width="960" height="320" fill="url(#bg)"/>
  <text x="28" y="38" fill="#7dd3fc" font-family="Manrope, Arial" font-size="22" font-weight="700">CI/CD Picture + Diagram</text>
  <text x="28" y="62" fill="#b6c5dd" font-family="Manrope, Arial" font-size="14">A push to main triggers build, push, auth, and rollout verification.</text>

  <rect x="32" y="110" width="155" height="100" rx="12" fill="url(#box)" stroke="#22d3ee"/>
  <text x="54" y="146" fill="#e8f0ff" font-size="16" font-family="Manrope, Arial" font-weight="700">Git Push</text>

  <rect x="214" y="95" width="210" height="130" rx="12" fill="url(#box)" stroke="#22d3ee"/>
  <text x="236" y="130" fill="#e8f0ff" font-size="16" font-family="Manrope, Arial" font-weight="700">GitHub Actions</text>
  <text x="236" y="154" fill="#b6c5dd" font-size="12" font-family="Manrope, Arial">deploy.yml</text>

  <rect x="452" y="110" width="155" height="100" rx="12" fill="url(#box)" stroke="#22d3ee"/>
  <text x="474" y="146" fill="#e8f0ff" font-size="16" font-family="Manrope, Arial" font-weight="700">Docker Hub</text>

  <rect x="635" y="95" width="140" height="130" rx="12" fill="url(#box)" stroke="#22d3ee"/>
  <text x="657" y="130" fill="#e8f0ff" font-size="16" font-family="Manrope, Arial" font-weight="700">GCP Auth</text>
  <text x="657" y="154" fill="#b6c5dd" font-size="12" font-family="Manrope, Arial">OIDC / WIF</text>

  <rect x="804" y="110" width="124" height="100" rx="12" fill="url(#box)" stroke="#22d3ee"/>
  <text x="826" y="146" fill="#e8f0ff" font-size="16" font-family="Manrope, Arial" font-weight="700">Rollout</text>

  <line x1="187" y1="160" x2="204" y2="160" stroke="#7dd3fc" stroke-width="3" marker-end="url(#arrow)"/>
  <line x1="424" y1="160" x2="442" y2="160" stroke="#7dd3fc" stroke-width="3" marker-end="url(#arrow)"/>
  <line x1="607" y1="160" x2="625" y2="160" stroke="#7dd3fc" stroke-width="3" marker-end="url(#arrow)"/>
  <line x1="775" y1="160" x2="794" y2="160" stroke="#7dd3fc" stroke-width="3" marker-end="url(#arrow)"/>
</svg>
