<svg xmlns="http://www.w3.org/2000/svg" viewBox="0 0 960 320" role="img" aria-label="Kubernetes diagram">
  <defs>
    <linearGradient id="bg" x1="0" x2="1" y1="0" y2="1">
      <stop offset="0" stop-color="#031226"/>
      <stop offset="1" stop-color="#13233f"/>
    </linearGradient>
    <linearGradient id="box" x1="0" x2="1" y1="0" y2="0">
      <stop offset="0" stop-color="#0b2a4e"/>
      <stop offset="1" stop-color="#123963"/>
    </linearGradient>
    <marker id="arrow" markerWidth="10" markerHeight="7" refX="9" refY="3.5" orient="auto">
      <polygon points="0 0, 10 3.5, 0 7" fill="#7dd3fc"/>
    </marker>
  </defs>
  <rect width="960" height="320" fill="url(#bg)"/>
  <text x="28" y="38" fill="#7dd3fc" font-family="Manrope, Arial" font-size="22" font-weight="700">Kubernetes Picture + Diagram</text>
  <text x="28" y="62" fill="#b6c5dd" font-family="Manrope, Arial" font-size="14">Ingress routes traffic to service, then to multiple pod replicas.</text>

  <rect x="40" y="108" width="180" height="110" rx="14" fill="url(#box)" stroke="#22d3ee"/>
  <text x="62" y="142" fill="#e8f0ff" font-size="17" font-family="Manrope, Arial" font-weight="700">Ingress</text>
  <text x="62" y="166" fill="#b6c5dd" font-size="13" font-family="Manrope, Arial">deniskachar.com</text>

  <rect x="300" y="108" width="190" height="110" rx="14" fill="url(#box)" stroke="#22d3ee"/>
  <text x="324" y="142" fill="#e8f0ff" font-size="17" font-family="Manrope, Arial" font-weight="700">Service</text>
  <text x="324" y="166" fill="#b6c5dd" font-size="13" font-family="Manrope, Arial">ClusterIP :80</text>

  <rect x="570" y="78" width="330" height="170" rx="14" fill="url(#box)" stroke="#22d3ee"/>
  <text x="592" y="112" fill="#e8f0ff" font-size="17" font-family="Manrope, Arial" font-weight="700">Deployment (3 replicas)</text>
  <rect x="595" y="130" width="85" height="95" rx="10" fill="#0a2140" stroke="#7dd3fc"/>
  <rect x="694" y="130" width="85" height="95" rx="10" fill="#0a2140" stroke="#7dd3fc"/>
  <rect x="793" y="130" width="85" height="95" rx="10" fill="#0a2140" stroke="#7dd3fc"/>
  <text x="620" y="184" fill="#b6c5dd" font-size="12" font-family="Manrope, Arial">Pod A</text>
  <text x="719" y="184" fill="#b6c5dd" font-size="12" font-family="Manrope, Arial">Pod B</text>
  <text x="818" y="184" fill="#b6c5dd" font-size="12" font-family="Manrope, Arial">Pod C</text>

  <line x1="220" y1="164" x2="290" y2="164" stroke="#7dd3fc" stroke-width="3" marker-end="url(#arrow)"/>
  <line x1="490" y1="164" x2="560" y2="164" stroke="#7dd3fc" stroke-width="3" marker-end="url(#arrow)"/>
</svg>
