<svg xmlns="http://www.w3.org/2000/svg" viewBox="0 0 960 320" role="img" aria-label="Kubernetes traffic flow">
  <defs>
    <linearGradient id="bg" x1="0" y1="0" x2="1" y2="1">
      <stop offset="0" stop-color="#031226"/>
      <stop offset="1" stop-color="#13233f"/>
    </linearGradient>
    <linearGradient id="box" x1="0" y1="0" x2="1" y2="0">
      <stop offset="0" stop-color="#0b2a4e"/>
      <stop offset="1" stop-color="#123963"/>
    </linearGradient>
    <marker id="arrow" markerWidth="10" markerHeight="7" refX="9" refY="3.5" orient="auto">
      <polygon points="0 0, 10 3.5, 0 7" fill="#7dd3fc"/>
    </marker>
  </defs>

  <rect width="960" height="320" fill="url(#bg)"/>
  <text x="28" y="38" fill="#7dd3fc" font-family="Manrope, Arial, sans-serif" font-size="22" font-weight="700">Kubernetes Diagram</text>
  <text x="28" y="62" fill="#b6c5dd" font-family="Manrope, Arial, sans-serif" font-size="14">Inbound traffic follows a clean path: Ingress, Service, then Deployment replicas.</text>

  <rect x="40" y="104" width="250" height="140" rx="14" fill="url(#box)" stroke="#22d3ee"/>
  <text x="62" y="138" fill="#e8f0ff" font-family="Manrope, Arial, sans-serif" font-size="18" font-weight="700">Ingress</text>
  <text x="62" y="164" fill="#b6c5dd" font-family="Manrope, Arial, sans-serif" font-size="13">Public host + TLS termination</text>
  <text x="62" y="184" fill="#b6c5dd" font-family="Manrope, Arial, sans-serif" font-size="13">Routes to internal service</text>

  <rect x="355" y="104" width="250" height="140" rx="14" fill="url(#box)" stroke="#22d3ee"/>
  <text x="377" y="138" fill="#e8f0ff" font-family="Manrope, Arial, sans-serif" font-size="18" font-weight="700">Service</text>
  <text x="377" y="164" fill="#b6c5dd" font-family="Manrope, Arial, sans-serif" font-size="13">ClusterIP load-balancing</text>
  <text x="377" y="184" fill="#b6c5dd" font-family="Manrope, Arial, sans-serif" font-size="13">Stable endpoint for pods</text>

  <rect x="670" y="104" width="250" height="140" rx="14" fill="url(#box)" stroke="#22d3ee"/>
  <text x="692" y="138" fill="#e8f0ff" font-family="Manrope, Arial, sans-serif" font-size="18" font-weight="700">Deployment Pods</text>
  <rect x="692" y="156" width="64" height="58" rx="8" fill="#0a2140" stroke="#7dd3fc"/>
  <rect x="764" y="156" width="64" height="58" rx="8" fill="#0a2140" stroke="#7dd3fc"/>
  <rect x="836" y="156" width="64" height="58" rx="8" fill="#0a2140" stroke="#7dd3fc"/>
  <text x="708" y="189" fill="#b6c5dd" font-family="Manrope, Arial, sans-serif" font-size="12">Pod</text>
  <text x="780" y="189" fill="#b6c5dd" font-family="Manrope, Arial, sans-serif" font-size="12">Pod</text>
  <text x="852" y="189" fill="#b6c5dd" font-family="Manrope, Arial, sans-serif" font-size="12">Pod</text>

  <line x1="290" y1="174" x2="345" y2="174" stroke="#7dd3fc" stroke-width="3" marker-end="url(#arrow)"/>
  <line x1="605" y1="174" x2="660" y2="174" stroke="#7dd3fc" stroke-width="3" marker-end="url(#arrow)"/>
</svg>
