<svg xmlns="http://www.w3.org/2000/svg" viewBox="0 0 960 420" role="img" aria-label="MCP chat deployment and runtime flow">
  <defs>
    <linearGradient id="bg" x1="0" y1="0" x2="1" y2="1">
      <stop offset="0" stop-color="#031226"/>
      <stop offset="1" stop-color="#13233f"/>
    </linearGradient>
    <linearGradient id="box" x1="0" y1="0" x2="1" y2="0">
      <stop offset="0" stop-color="#0b2a4e"/>
      <stop offset="1" stop-color="#123963"/>
    </linearGradient>
    <marker id="arrow" markerWidth="10" markerHeight="7" refX="9" refY="3.5" orient="auto">
      <polygon points="0 0, 10 3.5, 0 7" fill="#7dd3fc"/>
    </marker>
  </defs>

  <rect width="960" height="420" fill="url(#bg)"/>
  <text x="28" y="36" fill="#7dd3fc" font-family="Manrope, Arial, sans-serif" font-size="22" font-weight="700">MCP Chat End-to-End Scheme</text>
  <text x="28" y="58" fill="#b6c5dd" font-family="Manrope, Arial, sans-serif" font-size="13">Top lane: deployment flow. Bottom lane: runtime chat request flow.</text>

  <text x="28" y="90" fill="#22d3ee" font-family="Manrope, Arial, sans-serif" font-size="14" font-weight="700">Deployment</text>
  <rect x="20" y="106" width="170" height="92" rx="12" fill="url(#box)" stroke="#22d3ee"/>
  <text x="34" y="136" fill="#e8f0ff" font-family="Manrope, Arial, sans-serif" font-size="15" font-weight="700">Git Push</text>
  <text x="34" y="158" fill="#b6c5dd" font-family="Manrope, Arial, sans-serif" font-size="12">Update MCP + manifests</text>

  <rect x="220" y="106" width="170" height="92" rx="12" fill="url(#box)" stroke="#22d3ee"/>
  <text x="234" y="136" fill="#e8f0ff" font-family="Manrope, Arial, sans-serif" font-size="15" font-weight="700">GitHub Actions</text>
  <text x="234" y="158" fill="#b6c5dd" font-family="Manrope, Arial, sans-serif" font-size="12">Build + push image</text>

  <rect x="420" y="106" width="170" height="92" rx="12" fill="url(#box)" stroke="#22d3ee"/>
  <text x="434" y="136" fill="#e8f0ff" font-family="Manrope, Arial, sans-serif" font-size="15" font-weight="700">Kubernetes Rollout</text>
  <text x="434" y="158" fill="#b6c5dd" font-family="Manrope, Arial, sans-serif" font-size="12">Update app deployment</text>

  <rect x="620" y="106" width="150" height="92" rx="12" fill="url(#box)" stroke="#22d3ee"/>
  <text x="634" y="136" fill="#e8f0ff" font-family="Manrope, Arial, sans-serif" font-size="15" font-weight="700">LLM Resources</text>
  <text x="634" y="158" fill="#b6c5dd" font-family="Manrope, Arial, sans-serif" font-size="12">Ollama + llm-pool</text>

  <rect x="800" y="106" width="140" height="92" rx="12" fill="url(#box)" stroke="#22d3ee"/>
  <text x="814" y="136" fill="#e8f0ff" font-family="Manrope, Arial, sans-serif" font-size="15" font-weight="700">deniskachar.com</text>
  <text x="814" y="158" fill="#b6c5dd" font-family="Manrope, Arial, sans-serif" font-size="12">MCP page live</text>

  <line x1="190" y1="152" x2="210" y2="152" stroke="#7dd3fc" stroke-width="3" marker-end="url(#arrow)"/>
  <line x1="390" y1="152" x2="410" y2="152" stroke="#7dd3fc" stroke-width="3" marker-end="url(#arrow)"/>
  <line x1="590" y1="152" x2="610" y2="152" stroke="#7dd3fc" stroke-width="3" marker-end="url(#arrow)"/>
  <line x1="770" y1="152" x2="790" y2="152" stroke="#7dd3fc" stroke-width="3" marker-end="url(#arrow)"/>

  <text x="28" y="246" fill="#22d3ee" font-family="Manrope, Arial, sans-serif" font-size="14" font-weight="700">Runtime Request</text>
  <rect x="20" y="262" width="170" height="128" rx="12" fill="url(#box)" stroke="#22d3ee"/>
  <text x="34" y="292" fill="#e8f0ff" font-family="Manrope, Arial, sans-serif" font-size="15" font-weight="700">Browser</text>
  <text x="34" y="314" fill="#b6c5dd" font-family="Manrope, Arial, sans-serif" font-size="12">Open /MCP</text>
  <text x="34" y="332" fill="#b6c5dd" font-family="Manrope, Arial, sans-serif" font-size="12">POST /ollama/api/chat</text>

  <rect x="220" y="262" width="170" height="128" rx="12" fill="url(#box)" stroke="#22d3ee"/>
  <text x="234" y="292" fill="#e8f0ff" font-family="Manrope, Arial, sans-serif" font-size="15" font-weight="700">Ingress / LB</text>
  <text x="234" y="314" fill="#b6c5dd" font-family="Manrope, Arial, sans-serif" font-size="12">HTTPS routing</text>
  <text x="234" y="332" fill="#b6c5dd" font-family="Manrope, Arial, sans-serif" font-size="12">Backend timeout 300s</text>

  <rect x="420" y="262" width="170" height="128" rx="12" fill="url(#box)" stroke="#22d3ee"/>
  <text x="434" y="292" fill="#e8f0ff" font-family="Manrope, Arial, sans-serif" font-size="15" font-weight="700">App NGINX Pod</text>
  <text x="434" y="314" fill="#b6c5dd" font-family="Manrope, Arial, sans-serif" font-size="12">Serves /MCP static UI</text>
  <text x="434" y="332" fill="#b6c5dd" font-family="Manrope, Arial, sans-serif" font-size="12">Proxies /ollama/*</text>

  <rect x="620" y="262" width="150" height="128" rx="12" fill="url(#box)" stroke="#22d3ee"/>
  <text x="634" y="292" fill="#e8f0ff" font-family="Manrope, Arial, sans-serif" font-size="15" font-weight="700">Ollama Service</text>
  <text x="634" y="314" fill="#b6c5dd" font-family="Manrope, Arial, sans-serif" font-size="12">llm namespace</text>
  <text x="634" y="332" fill="#b6c5dd" font-family="Manrope, Arial, sans-serif" font-size="12">ClusterIP 11434</text>

  <rect x="800" y="262" width="140" height="128" rx="12" fill="url(#box)" stroke="#22d3ee"/>
  <text x="814" y="292" fill="#e8f0ff" font-family="Manrope, Arial, sans-serif" font-size="15" font-weight="700">LLM Pod</text>
  <text x="814" y="314" fill="#b6c5dd" font-family="Manrope, Arial, sans-serif" font-size="12">Ollama on llm-pool</text>
  <text x="814" y="332" fill="#b6c5dd" font-family="Manrope, Arial, sans-serif" font-size="12">llama3.2:1b model</text>

  <line x1="190" y1="326" x2="210" y2="326" stroke="#7dd3fc" stroke-width="3" marker-end="url(#arrow)"/>
  <line x1="390" y1="326" x2="410" y2="326" stroke="#7dd3fc" stroke-width="3" marker-end="url(#arrow)"/>
  <line x1="590" y1="326" x2="610" y2="326" stroke="#7dd3fc" stroke-width="3" marker-end="url(#arrow)"/>
  <line x1="770" y1="326" x2="790" y2="326" stroke="#7dd3fc" stroke-width="3" marker-end="url(#arrow)"/>

  <path d="M 870 258 C 868 230, 870 220, 860 210" fill="none" stroke="#34d399" stroke-width="3" marker-end="url(#arrow)"/>
  <text x="748" y="216" fill="#34d399" font-family="Manrope, Arial, sans-serif" font-size="12">response returns to browser chat UI</text>
</svg>
