<svg xmlns="http://www.w3.org/2000/svg" viewBox="0 0 960 330" role="img" aria-label="Release flow diagram">
  <defs>
    <linearGradient id="bg" x1="0" x2="1" y1="0" y2="1">
      <stop offset="0" stop-color="#031226"/>
      <stop offset="1" stop-color="#13233f"/>
    </linearGradient>
    <linearGradient id="box" x1="0" x2="1" y1="0" y2="0">
      <stop offset="0" stop-color="#0b2a4e"/>
      <stop offset="1" stop-color="#123963"/>
    </linearGradient>
    <marker id="arrow" markerWidth="10" markerHeight="7" refX="9" refY="3.5" orient="auto">
      <polygon points="0 0, 10 3.5, 0 7" fill="#7dd3fc"/>
    </marker>
  </defs>
  <rect width="960" height="330" fill="url(#bg)"/>
  <text x="28" y="38" fill="#7dd3fc" font-family="Manrope, Arial" font-size="22" font-weight="700">Release Flow Picture + Diagram</text>
  <text x="28" y="62" fill="#b6c5dd" font-family="Manrope, Arial" font-size="14">Compact view for interview walkthroughs.</text>

  <rect x="36" y="112" width="205" height="92" rx="12" fill="url(#box)" stroke="#22d3ee"/>
  <text x="58" y="146" fill="#e8f0ff" font-size="15" font-family="Manrope, Arial" font-weight="700">Infrastructure Ready</text>
  <text x="58" y="169" fill="#b6c5dd" font-size="12" font-family="Manrope, Arial">Cluster and identity prepared</text>

  <rect x="268" y="112" width="205" height="92" rx="12" fill="url(#box)" stroke="#22d3ee"/>
  <text x="290" y="146" fill="#e8f0ff" font-size="15" font-family="Manrope, Arial" font-weight="700">Change in Main</text>
  <text x="290" y="169" fill="#b6c5dd" font-size="12" font-family="Manrope, Arial">Workflow starts automatically</text>

  <rect x="500" y="112" width="205" height="92" rx="12" fill="url(#box)" stroke="#22d3ee"/>
  <text x="522" y="146" fill="#e8f0ff" font-size="15" font-family="Manrope, Arial" font-weight="700">Fresh Build + Deploy</text>
  <text x="522" y="169" fill="#b6c5dd" font-size="12" font-family="Manrope, Arial">Container refreshes in cluster</text>

  <rect x="732" y="112" width="192" height="92" rx="12" fill="url(#box)" stroke="#22d3ee"/>
  <text x="754" y="146" fill="#e8f0ff" font-size="15" font-family="Manrope, Arial" font-weight="700">Healthy Live Site</text>
  <text x="754" y="169" fill="#b6c5dd" font-size="12" font-family="Manrope, Arial">Traffic stays on HTTPS</text>

  <line x1="241" y1="158" x2="258" y2="158" stroke="#7dd3fc" stroke-width="3" marker-end="url(#arrow)"/>
  <line x1="473" y1="158" x2="490" y2="158" stroke="#7dd3fc" stroke-width="3" marker-end="url(#arrow)"/>
  <line x1="705" y1="158" x2="722" y2="158" stroke="#7dd3fc" stroke-width="3" marker-end="url(#arrow)"/>

  <rect x="36" y="236" width="888" height="66" rx="12" fill="#0a2140" stroke="#22d3ee"/>
  <text x="58" y="265" fill="#e8f0ff" font-size="13" font-family="Manrope, Arial" font-weight="700">Interview summary</text>
  <text x="58" y="286" fill="#b6c5dd" font-size="12" font-family="Manrope, Arial">Automation keeps releases consistent, secure, and low-friction from commit to production.</text>
</svg>
